<svg xmlns="http://www.w3.org/2000/svg" viewBox="0 0 200 150"><defs><style>.cls-1{fill:#d2122e;}.cls-2{fill:none;}</style></defs><g id="Layer_2" data-name="Layer 2"><g id="Layer_1-2" data-name="Layer 1"><path class="cls-1" d="M167.35,91.07c.44-2.19.77-4.4,1-6.61s.32-4.42.32-6.71a67.17,67.17,0,0,0-67.18-67.19h-.82l0-2.62h.85a69.8,69.8,0,0,1,69.8,69.81c0,2.32-.12,4.65-.34,7s-.58,4.65-1,6.87l-2.56-.51Z"/><path class="cls-1" d="M165,90.6q.63-3.15,1-6.38t.32-6.47A64.73,64.73,0,0,0,101.48,13h-.87v-.65h.88a65.42,65.42,0,0,1,65.4,65.4,67.16,67.16,0,0,1-1.29,13L165,90.6Z"/><path class="cls-1" d="M171.65,92q.71-3.5,1.07-7.08t.35-7.17A71.6,71.6,0,0,0,101.48,6.16h-.87V5.51h.88A72.33,72.33,0,0,1,172.3,92.12l-.65-.12Z"/><path class="cls-1" d="M34.4,74c0,.67-.07,1.3-.08,1.89s0,1.28,0,1.9a67.19,67.19,0,0,0,67.19,67.19c1.63,0,3.27-.06,4.93-.19s3.32-.29,4.89-.52l.38,2.58c-1.72.25-3.41.44-5.08.56s-3.37.19-5.12.19A69.82,69.82,0,0,1,31.67,77.75c0-.67,0-1.33,0-2s.05-1.34.08-2L34.4,74Z"/><path class="cls-1" d="M36.83,74.24c0,.59-.06,1.17-.07,1.75s0,1.17,0,1.76a64.75,64.75,0,0,0,64.75,64.74c1.6,0,3.21-.06,4.8-.17s3.2-.3,4.76-.53l.09.65c-1.59.24-3.2.42-4.81.53s-3.21.18-4.84.18a65.4,65.4,0,0,1-65.4-65.4c0-.6,0-1.19,0-1.78s0-1.19.07-1.76l.66,0Z"/><path class="cls-1" d="M30,73.58c0,.7-.07,1.4-.09,2.09s0,1.39,0,2.08a71.58,71.58,0,0,0,71.6,71.59c1.74,0,3.48-.06,5.21-.18s3.47-.32,5.16-.56l.09.64c-1.73.26-3.47.45-5.21.57s-3.48.19-5.25.19A72.24,72.24,0,0,1,29.23,77.75q0-1.06,0-2.1t.09-2.1l.65,0Z"/><path d="M120,144.51l-1.7.45.1-2.9,1.6,2.45Zm-1.25-4.31-1.6.42-.41,7.5,1.46-.39,0-1.48,2.47-.65.82,1.25,1.48-.39-4.27-6.26Z"/><polygon points="128.17 136.83 129.31 136.35 132.06 142.94 130.74 143.49 129.03 139.37 128.47 142.03 128.27 142.12 125.98 140.64 127.69 144.76 126.38 145.31 123.64 138.71 124.78 138.24 127.49 139.98 128.17 136.83 128.17 136.83"/><path d="M136.41,134.55a3.82,3.82,0,0,0-1.88.35c-.45.26-.62.62-.44.93.54.93,2.91-.78,4.15,1.38a2,2,0,0,1-.82,3,3.25,3.25,0,0,1-2.13.43l-.77-1.33a3,3,0,0,0,2.15-.17c.48-.28.61-.63.4-1-.58-1-2.89.81-4.17-1.41a2,2,0,0,1,.86-2.87,3.89,3.89,0,0,1,2-.48l.69,1.2Z"/><polygon points="143.11 129.18 141.45 130.41 144.93 135.1 143.78 135.95 140.31 131.27 138.64 132.5 137.86 131.45 142.33 128.13 143.11 129.18 143.11 129.18"/><polygon points="152.46 128.55 149.4 131.45 144.49 126.26 147.51 123.4 148.41 124.35 146.42 126.23 147.45 127.32 149.34 125.53 150.24 126.48 148.35 128.27 149.53 129.52 151.56 127.6 152.46 128.55 152.46 128.55"/><path d="M151.58,120.87l.46-.55a.72.72,0,0,1,1.14-.1.73.73,0,0,1,.13,1.12l-.49.57-1.24-1Zm-1.92.25,5.47,4.59.92-1.09-2.22-1.86.26-.32c.5-.59,1.69.12,3.26.63l1-1.2c-2.12-.73-2.9-1.16-3.56-.94a1.9,1.9,0,0,0-.71-1.88,1.93,1.93,0,0,0-2.78.11l-1.64,2Z"/><path d="M156.31,114.69l.49-.77c.73-1.14,1.89-1,2.92-.35.88.56,1.67,1.58.89,2.79l-.5.78-3.8-2.45Zm-1.88.48,6,3.87,1.28-2c1.23-1.92.53-3.61-1.2-4.72s-3.59-1-4.72.71l-1.37,2.12Z"/><path d="M164.28,107l-.76,1.59-2.14-2,2.9.37Zm-4.09-1.83-.71,1.48,5.44,5.17.65-1.35-1.09-1,1.11-2.31,1.48.2.66-1.39-7.54-.8Z"/><polygon points="163.75 95.76 164.13 94.58 170.93 96.77 170.5 98.12 166.25 96.76 167.91 98.91 167.84 99.12 165.24 99.9 169.49 101.27 169.05 102.62 162.25 100.44 162.63 99.26 165.71 98.32 163.75 95.76 163.75 95.76"/><path d="M31.54,58.27l7.6-.66L37.68,63l-6.14-4.69Zm12,9.26-3.12-2.41,2.13-7.82L46.44,57l1.31-4.8-20,2.12-1.42,5.24,16,12.84,1.32-4.83Z"/><path d="M52.07,49.2a3.19,3.19,0,0,0,.74-2.31Q52.6,46,50.74,44.7L37,35l2.72-3.85L53.59,41q3.24,2.28,3.76,4.29T56.05,50l-4-.78Z"/><path d="M58.59,19.13,65,23.34l-4.45,3.29-1.93-7.5ZM62.3,33.85l-1-3.84,6.5-4.81,3.26,2.15,4-3-17-10.76L53.7,16.86l4.57,20,4-3Z"/><polygon points="77.94 22.98 83.53 11.75 74.27 4.55 80.04 3.26 85.62 7.65 88.81 1.29 94.55 0 89.2 10.42 99.33 18.18 93.44 19.5 87.18 14.62 83.64 21.7 77.94 22.98 77.94 22.98"/><path d="M53.31,107.12s8.13-1.94,26.16,6a39.35,39.35,0,0,0,5.91,1.58,2.94,2.94,0,0,0-.75-1c-.47-.46-.93-.92,0-1.85s1.38-.46,1.85,0c3.76,3.77-.07,5.39-.08,5.4l-.63.11a36.92,36.92,0,0,1-7.21-1.83l-.08,0c-17.27-7.57-24.59-5.81-24.62-5.81-.63.14-1.28.28-1.55-1s.36-1.42,1-1.56ZM91.92,78.63a6.68,6.68,0,0,0-2.24,3.44l-.09.66L89,83a22.18,22.18,0,0,1-6.3,2.11c-.64.1-1.29.21-1.51-1.08s.44-1.39,1.08-1.5a19.8,19.8,0,0,0,5-1.57,9.84,9.84,0,0,1,2.69-4.07l-1.2-7.6,2.06-1.26,7.13,5.19c.51.28.71.57.74.85a1.36,1.36,0,0,1-.32.94c-1.77,3.41-.78,4-.78,4l.18.12a8.07,8.07,0,0,1,2.29,4v0c1.17,6.73-.92,9.25-1.45,9.76a36.12,36.12,0,0,0-3,6c-.84,4.24-4.91,4.36-5.77,4.33a18.59,18.59,0,0,0-4.87,1.45l-.13.07a8.8,8.8,0,0,1-7.16.27c-3.11-.66-4.14-2.13-4.15-2.13l-.15-.31c-1.1-3-2.78-3.56-2.79-3.56l-.42-.24c-4.78-4-1.43-8.43-1.42-8.44l.13-.15a22.73,22.73,0,0,0,1.58-2.18c-.38-.1-.66-.4-.66-1.25,0-1.31.66-1.31,1.31-1.31H72.2a.87.87,0,0,1,.92,0h1.74c.65,0,1.31,0,1.31,1.31s-.66,1.3-1.31,1.3H73.49c-.7,1.07-2.15,3.23-2.76,3.9a3.43,3.43,0,0,0,.91,4.69,8.5,8.5,0,0,1,4,4.81,5.29,5.29,0,0,0,2.61,1l.38.14s1.94,1.1,5-.27a22.9,22.9,0,0,1,5.75-1.72l.33,0s2.76.23,3.21-2.3l.08-.27s2.15-5.22,3.6-6.9l.17-.17s1.68-1.27.62-7.36a5.11,5.11,0,0,0-1.41-2.51h0c-.56-.45-2.27-2.23-.49-6.37L91.8,72.05l.77,4.87a.9.9,0,0,1,.09,1c0,.29-.24.54-.74.68Zm33.45,48.28h0c0,.09,0,1,.11.92l0,0s2.11-1.74,2.93-9.61l0-.16s1.79-7.94,7.92-.36c.41.41,4,3.95,4.14.93-.42-1.26-2.39-7.17-2.8-8.31-.41-.71-2.85-5.46,4.75-5.61h.1a37.19,37.19,0,0,1,9.75,2c.61.22,1.23.45.79,1.67s-1.06,1-1.68.78a34.77,34.77,0,0,0-9-1.88C139,107.4,140,109,140,109l.1.23c.37,1,2.95,8.74,3,8.76l.07.44c-.16,10-8.66,1-8.69,1l-.08-.08c-2.53-3.16-3.26-1.17-3.36-.81-.94,8.85-3.82,11.23-3.83,11.24l0,0c-3.51,3.16-4.27-.7-4.43-2.22a2.59,2.59,0,0,1,0-.56h0a3.08,3.08,0,0,1,0-.43v-6.81c0-5.46-2.1-3.77-2.43-3.47-7.44,8.19-11.59,21.28-11.6,21.32-.2.62-.4,1.25-1.64.85s-1-1-.85-1.65h0s4.34-13.69,12.17-22.3l.06,0s6.82-6.8,6.9,5.07a1.77,1.77,0,0,1,0,.23v7.16Zm-5.08-10.61v0ZM131,118.62ZM78.24,62.47s-1.6,1.8-.81,1.86,5.5-.38,5.5,3.49v-.1s.52,4.88-4.79,3.55l-.43-.19s-.38-.27-.25,2.59c0,.13,0,.27,0,.41h0a3.24,3.24,0,0,1,0,.54v4.53c1,1.3,3.58,5.31-2.32,5.27a2,2,0,0,1-.59,0,2.46,2.46,0,0,1-.67-.09L71.3,84c-.64-.09-1.29-.18-1.12-1.47s.82-1.2,1.47-1.11l3.06.42c1.15,0,1-.57.73-1a1.51,1.51,0,0,1-.58-1.69v-4.9c-.41-7.52,3.13-6,4.11-5.44,1.47.28,1.34-.85,1.34-.85v-.11c0-1.23-2.67-.88-2.67-.88h-.16c-6.74,0-1.21-6.19-1.2-6.21.44-.49.87-1,1.85-.11s.54,1.35.11,1.84Zm-7.6-1.17a27.83,27.83,0,0,1-2.51-2.93,3.15,3.15,0,0,1-.23-.53c-.63-.93-3-5,4.68-4.3l.25.05c.06,0,20.17,5.76,51.49,36.76h0s4.56,4.39-1.63,6.23l-.1,0a3,3,0,0,0-2.39,3.23c.69,1,1.92,3.62-3.23,4.94l-.1,0a24.93,24.93,0,0,0-4.79,1.21l-.33.1s-3.83.75-3.39-5.85l.07-.32s.87-2.62-.45-4.36a2.35,2.35,0,0,0-1.52-.75c-1.79-.37-3.24-.68-2.9-4.52a8.89,8.89,0,0,1,.53-2.88c.25-.61.49-1.21,1.7-.73s1,1.09.73,1.7a6,6,0,0,0-.34,1.91v.13c-.16,1.63.28,1.72.83,1.84A4.45,4.45,0,0,1,110,94c1.88,2.46,1.15,5.73.92,6.56-.15,2.47.15,2.89.27,3a28.86,28.86,0,0,1,5.12-1.28c2.07-.54,1.63-1,1.63-1l-.34-.7A5.48,5.48,0,0,1,122,94.05c1.83-.57.51-1.83.51-1.84h0C92.91,62.94,73.78,56.62,72.2,56.13c-2.52-.23-2.08.32-2.08.32l.27.79s0-.19.08,0,2.06,2.31,2.07,2.31c.45.48.89,1-.06,1.85s-1.39.42-1.84-.06ZM102,100.23s-1.58,6-3.09,8.51l-.07.11s-2.61,3.54.4,1.9l.16-.08a38.33,38.33,0,0,1,7.07-2c.64-.08,1.29-.16,1.45,1.14s-.49,1.38-1.14,1.46a35.45,35.45,0,0,0-6.39,1.86c-12.7,6.9-4.39-4.76-3.7-5.72,1.32-2.27,2.78-7.79,2.78-7.81.17-.63.34-1.26,1.6-.93s1.09,1,.93,1.6Zm34.23-68.89c3,.83,15.53,5.37,15.53,23.61h0c0,.07.69,27.58-25,27.58h.1S115,83.59,109.14,70l0-.12s-3-9.46-8-9.4l-.29,0s-1.44-.35-3.56,1.37c-.51.41-1,.83-1.84-.19s-.32-1.42.19-1.83a7.39,7.39,0,0,1,5.59-1.93c6.5,0,10,10,10.35,11.11,5.11,11.87,15,11,15.06,11h.09c23,0,22.42-24.86,22.42-24.93v0c0-14.73-8.84-19.44-12.52-20.76v7.9c6.78,4.95,7,10.57,7,10.59,0,.65.06,1.31-1.25,1.37s-1.34-.59-1.37-1.25h0s-.14-4.53-6.1-8.76a1.23,1.23,0,0,1-.86-1.62V33a1.91,1.91,0,0,1,0-.68c0-.4,0-.79.4-1a1,1,0,0,1,1-.18,1.58,1.58,0,0,1,.79.19ZM111.58,69h0ZM72.82,67.84s-3.77,6.25-4.17,7.23l-.18.33s-1.07,1.35.3,1.61l.34.12a4,4,0,0,0,1.6.29c.66,0,1.31,0,1.31,1.31S71.37,80,70.71,80a7,7,0,0,1-2.58-.49c-4.82-1-2.38-4.84-1.82-5.63.72-1.55,4.26-7.41,4.27-7.43.33-.55.67-1.12,1.79-.44s.78,1.23.45,1.79ZM68,79.47Zm29.52,4.21v0Zm-1.24-2.41h0ZM78.09,50s4.62,0,15.5-7.06l0,0s12.86-9.07,23.08-9.16h0s7.25.18,12.08,3.51c.54.37,1.08.74.34,1.82s-1.28.7-1.82.33c-4.07-2.82-10.34-3-10.66-3-9.4.1-21.52,8.65-21.56,8.68l0,0c-11.53,7.5-16.88,7.5-16.89,7.5-.66,0-1.31,0-1.33-1.29s.64-1.32,1.3-1.33ZM129.3,103.5s-3.15.23-3.17,3c0,.2.21,2.32,3.06,2.32l.36.06s1.9.62,3.21-2.92c.23-.61.46-1.22,1.68-.77s1,1.07.77,1.69c-1.88,5-5.26,4.74-6.16,4.55-5.39-.07-5.54-4.84-5.54-4.86v0c0-5.26,5.55-5.67,5.56-5.67.66-.06,1.31-.12,1.42,1.19s-.54,1.37-1.19,1.43Zm-49,19.32s7.86,1.25,8.83,11.76c.06.65.12,1.3-1.18,1.42s-1.36-.54-1.42-1.19c-.78-8.48-6.64-9.41-6.66-9.41-.64-.11-1.29-.22-1.07-1.51s.86-1.18,1.5-1.07Z"/><rect class="cls-2" width="200" height="150"/></g></g></svg>